<?xml version="1.0" encoding="utf-8"?>
<!-- Generator: Adobe Illustrator 18.1.1, SVG Export Plug-In . SVG Version: 6.00 Build 0)  -->
<svg version="1.1" xmlns="http://www.w3.org/2000/svg" xmlns:xlink="http://www.w3.org/1999/xlink" x="0px" y="0px"
	 viewBox="0 0 500 500" enable-background="new 0 0 500 500" xml:space="preserve">
<g id="Layer_2" display="none">
	
		<rect x="11.7" y="11.7" display="inline" fill="none" stroke="#000000" stroke-width="2" stroke-miterlimit="10" width="476.7" height="476.7"/>
</g>
<g id="Layer_1">
	<g>
		<path fill="#85C0AF" d="M142,231.5c-3.4,10-22.9,38.1-31.3,43.3c-3,1.8-7,2.3-10.7,0.7c-13.5-6-21.7-16.6-26.6-30.2
			c-0.6-1.6-3.6-10.4-4.2-12.1c-1.3,0.9-1.4,8.6-1.4,9.5c0,33.2-2.9,119.1-3.2,123.8c-0.3,4.8,7.6,18.1,3.7,17.8
			c-4.7-0.4-5.4,5.9-5.5,0.8c-0.1-5.8,2.6-9.7,1.8-15.5c-0.3-2-7.5-3.4-6.4-5.4c1.1,7.8,1.5,15.6,1.4,23.4c-0.1,4.7,2.7,7.6,6.5,7.6
			c3.8,0,6.5-3,6.5-7.6c0-5.7-0.1-11.4-0.5-17.2c-0.8-11.7-2.4-23.3-2.3-35.1c0.3-54.9,0.2-109.7,0.3-164.6c0-2.1,0-4.3-0.4-6.3
			c-0.6-2.8-2.4-4.7-5.2-5.2c-2.8-0.5-4.8,0.8-6.4,3c-0.4,0.6-0.9,1.2-1.3,1.8c-0.4-3.4-0.9-6.9-1.1-10.3
			c-1.3-23.3-1.2-46.6-0.6-69.9c0.3-10.6,0.2-21.2,0.5-31.8c0.1-5.1,3.1-8.8,7.1-9c4.4-0.2,7.7,2.8,7.8,7.8
			c0.1,11.2,0.1,22.4-0.4,33.7c-0.5,11.3-0.1,22.7-0.4,34c-0.3,14.2,0.1,28.5,1.2,42.6c1.1,14.8,3.6,29.6,6.8,44.2
			c2.7,12.5,5.5,25,10.9,36.8c2.7,5.9,5.6,11.7,10.8,15.9c4,3.2,4.9,3.2,8.5-0.3c10.5-10.2,16.6-22.9,21-36.6
			c6.1-19.4,8.3-39.3,9.2-59.6c0.5-11.8,0.8-23.7,0.4-35.5c-0.7-20.5-1.8-41-3.3-61.5c-0.6-8.2-0.8-16.4-0.9-24.7
			c-0.1-5,3.2-8.7,7.3-8.7c4.5-0.1,7.4,3.2,7.6,8.7c0.8,17.2,1.2,34.4,2.4,51.5c1.2,17.7,2.2,35.3,1.9,53
			c-0.1,8.2-0.8,16.3-1.2,24.5c-0.2-0.4-0.5-0.9-0.6-1.3c-1.1-3.2-3.2-5-6.7-4.8c-3.5,0.3-5.3,2.6-5.9,5.8c-0.3,1.8-0.3,3.7-0.3,5.6
			"/>
		<path fill="#070707" d="M56.7,163.9c0.3-0.7,0.9-1.2,1.3-1.8c1.5-2.2,3.6-3.5,6.4-3c2.9,0.5,4.7,2.4,5.2,5.2
			c0.4,2.1,0.4,4.2,0.4,6.3c0,54.9,0,109.7-0.3,164.6c-0.1,11.8,1.5,23.4,2.3,35.1c0.4,5.7,0.5,11.5,0.5,17.2c0,4.7-2.7,7.6-6.5,7.6
			c-3.8,0-6.5-2.9-6.5-7.6c0.1-7.8-0.2-15.6-1.4-23.4c0-0.5-0.1-1-0.1-1.5c-0.1-8.1-1.3-16.1-1.3-24.2c0.1-56.6,0.1-113.2,0-169.8"
			/>
		<path fill="#070707" d="M138.1,373c0.6,2.5,3.2,3.7,5.7,3.6c3.5-0.1,6.1-3,6.1-7.6c0.1-14.3,0.1-28.6,0.1-43
			c0-7.8-1.3-30.8-0.2-38.6l2.3-118.9c-0.2-0.4-0.5-0.9-0.6-1.3c-1.1-3.2-3.2-5-6.7-4.8c-3.5,0.3-5.3,2.6-5.9,5.8
			c-0.3,1.8-0.3,3.7-0.3,5.6c0.1,41.6-1.9,85.3-1.9,126.9c0,2.1,2.1-7.3,1.9,4.1c0,0.1,0,0.3,0,0.4v41.9"/>
		<path fill="#070707" d="M230.7,157.6c0.7-20.4-1.4-40.6-2-60.9c-0.1-5.4-0.2-10.7-0.3-16.1c0-2.5,0.3-5,3.4-5.3
			c3-0.3,5.3,2.1,5.3,5.4c0.1,9.7,0.2,19.5,0.7,29.2c1,18.7,1.8,37.4,2.6,56.1c0.2,3.7-0.3,7.4-0.7,11.2c-0.3,3.4-2.7,3.3-4.9,4
			c-2.5,0.8-3.1-1.2-3.9-2.6c-3.3-5.7-5.1-12.1-7.2-18.3c-5.2-15.6-9.7-31.5-16.6-46.5c-1.4-3.2-2.9-6.3-5.6-10
			c-0.4,4.4-0.4,7.9,0.1,11.4c1.7,12.9,3.1,25.7,1.1,38.7c-1.1,7-2.1,14.1-2.3,21.2c-0.1,2.3-0.9,4.4-3.7,4.2
			c-2.5-0.2-3.3-2-3.3-4.5c-0.2-7.3,0.5-14.4,1.8-21.5c2.3-13.1,0.9-26.1-0.2-39.1c-0.5-5.6-0.7-11.2,0.1-16.8
			c0.7-4.8,4.5-6.4,8.3-3.4c3.5,2.7,5.1,6.6,6.9,10.5c7.5,16.5,13.3,33.6,19.4,50.7C230,155.8,230.4,156.7,230.7,157.6z"/>
		<path fill="#070707" d="M310.7,165.3c-6.2,6.1-12.5,10.4-19.8,13.3c-9.2,3.7-13.9,1.5-17.1-8c-1.7-5-2.2-10.2-2.6-15.4
			c-1.6-21,0.3-41.5,9.3-61c3.6-7.7,13-12.7,20.5-11c4.5,1.1,7,4.5,6.6,9c-0.1,1.8-0.9,3.2-2.8,3.3c-1.8,0.1-2.9-1-3.4-2.9
			c-1.2-5.1-4.3-6.1-8.4-2.6c-5.7,4.8-9.4,11.1-11.5,18c-6.2,20.3-6.9,40.9-0.8,61.5c1.4,4.7,2.4,5.3,7,3.5c7.6-3,14.6-7,19.7-13.7
			c2.5-3.3,4.6-6.8,3.6-11.3c-0.4-2-1.4-2.8-3.4-2.4c-3.5,0.7-7.1,1.2-10.7,1.9c-2.4,0.5-5.5,0.6-6.2-1.8c-0.8-2.7,1.1-4.8,4.1-6
			c7.4-3,14.6-1.8,21.9,0.1c2.8,0.7,2.7,3.1,2.6,5.1c-0.3,6.1-0.6,12.2-1.5,18.2c-1,7-2.1,14-2.6,21.1c-0.1,2-0.7,3.9-3.2,3.7
			c-2.5-0.2-3.3-1.9-3.1-4.2C309.6,178,310.1,172.1,310.7,165.3z"/>
		<path fill="#070707" d="M405.5,312.2c1.9,9.6,4.8,18.6,5.6,27.9c0.2,2.3,0.7,4.9-2.4,5.3c-3.1,0.4-3.7-2.1-3.9-4.7
			c-1.3-13.7-5.5-26.8-7.7-40.4c-1.4-8.5-1.9-17,0.8-25.5c2.5-7.9,8.5-12.4,15.2-16.2c4-2.2,11.5,1.1,14,5.7
			c5.4,9.8,7.3,20.6,8.5,31.5c0.3,2.4-0.4,5.5,4,4c1.4-0.5,2.9,0.8,3.1,2.5c0.3,1.9-0.8,3.5-2.5,3.6c-4.3,0.2-3.8,2.9-3.8,5.9
			c0.1,10.1-0.1,20.2-0.1,30.3c0,2.3-0.3,4.6-3.2,4.5c-2.7-0.1-3.3-2.1-3.3-4.5c-0.1-10.1-0.2-20.2-0.3-30.3c0-2.1-0.3-2.7-2.7-2.1
			C420.1,311.6,413.3,313.8,405.5,312.2z M410.9,305.8c5.6,0.3,10.8-1.4,16.1-2.6c2-0.5,2.1-1.6,1.9-3.2c-0.7-7.4-1.5-14.9-3.3-22.1
			c-0.8-3.5-2-6.9-3.9-10c-1.3-2.1-3.5-3.6-5.5-2.7c-5.3,2.4-10.4,5.1-12.3,11.6c-2.1,7.4-2,14.7-1,22.2
			C403.8,305.6,403.8,305.6,410.9,305.8z"/>
		<path fill="#070707" d="M277.7,271.3c0.9,6.1,2,11.8,2.2,17.6c0.7,15-0.9,29.9-1.7,44.8c-0.2,3.2-0.3,6.5-0.5,9.7
			c-0.1,1.7,0,4.2-2.1,4c-2-0.1-3.8-2-3.8-4.4c-0.1-2.6,0.1-5.2,0.3-7.8c0.6-10,1.2-19.9,1.9-29.9c0.8-11.3-0.8-22.4-2.4-33.5
			c-0.3-2-1.4-2.1-2.8-2.2c-3.4-0.3-6.7-0.5-10.1-0.7c-2.3-0.1-4.1-1-3.9-3.5c0.2-2.3,2.1-2.8,4.2-2.6c2.9,0.3,5.7,0.5,8.6,0.7
			c2.5,0.2,4.9,0.8,7.1-1.7c1.5-1.6,4.1-1.1,4.6,1.5c0.4,2,1.4,2.2,2.9,2.6c9.3,2.2,18.2,5.2,26.1,10.6c13.6,9.4,18.8,26.2,8.8,40.2
			c-4.8,6.7-10.9,12-17.1,17.2c-4.7,3.9-9.5,7.7-14.2,11.6c-1.6,1.3-3.3,2.1-4.9,0.3c-1.6-1.7-0.9-3.5,0.7-4.8c3-2.5,5.9-4.9,9-7.3
			c6.6-5.2,12.9-10.6,18.4-16.9c2.3-2.7,4.3-5.5,5.7-8.7c3.1-7.3,2.3-14.1-3-20.2c-2.5-3-5.6-5.3-8.9-7.4
			C295,275.8,286.6,273.5,277.7,271.3z"/>
		<path fill="#070707" d="M203.5,329.5c0,4.1,0.2,8.2-0.1,12.3c-0.1,2.6,0.7,3.5,3.3,3.5c7.4,0,14.6-1.3,21.9-2.6
			c2.3-0.4,4.5-0.6,5.1,2.1c0.6,2.9-1.5,3.8-3.9,4.2c-8.1,1.6-16.2,2.8-24.5,2.3c-1.2-0.1-2,0.2-2.8,1.2c-1.5,1.7-3.7,1.3-4.4-0.3
			c-1.4-3.2-3.7-6-2.2-10.3c2-5.9,1-12.4,1.7-18.5c0.3-2.6,0.2-5.2,0.4-7.8c0.1-2,0.6-3.7-1.6-5.2c-1.6-1.2-1.7-3.5,0.4-4.7
			c1.4-0.7,1.6-1.6,1.6-2.9c0.5-11,0.5-21.9,0.3-32.9c0-1.1-0.2-1.9-1.2-2.5c-0.8-0.5-1.1-1.3-1.2-2.2c-0.3-2.8,5.8-7.4,8.1-5.9
			c1.7,1.1,3.2,0.9,4.9,0.7c9.8-1.3,19.6-1.7,29.4-2.2c1-0.1,2-0.1,3-0.1c2.1,0,3.8,0.6,3.8,3c0,2.2-1.7,3-3.6,3
			c-5.8,0-11.4,1-17.1,1.5c-5.7,0.5-11.4,1.1-17.1,1.4c-2.2,0.1-2.6,0.9-2.6,2.9c0,11.7-0.1,23.4-0.4,35.1c-0.1,2.4,0.9,2.7,2.7,2.7
			c5.4,0.1,10.6-1.5,15.7-2.9c1.6-0.4,3.1-0.9,4.7-1.3c1.8-0.4,3.3,0.3,3.8,2.1c0.5,1.9-0.4,3.3-2.1,3.8c-7.4,2-14.7,4.8-22.6,4.4
			c-2.1-0.1-2.7,0.3-2.7,2.5c0,4.5-0.4,9-0.6,13.4L203.5,329.5z"/>
		<path fill="#070707" d="M352.5,317.8c-0.5-16.6-2.6-33-3.5-49.6c-0.1-1.6-0.7-2.1-2.2-2c-2.6,0.1-5.2,0.2-7.7-0.9
			c-1.9-0.8-3.4-2-2.7-4.2c0.7-2.4,2.7-2.3,4.6-1.7c5.5,1.7,10.8,0,16.2-0.4c1.1-0.1,2.2-0.4,3.3-0.5c1.9-0.2,3.7,0.1,4,2.3
			c0.4,2.3-1,3.3-3.1,3.8c-6.5,1.5-6.4,1.5-6,8.2c1.2,19.3,4,38.4,3.3,57.8c-0.1,3.7-1.9,8.7-0.2,10.8c1.8,2.2,6.9-0.2,10.6,0.1
			c1.1,0.1,2.2-0.2,3.3,0.5c1.2,0.8,1.7,1.8,1.3,3.2c-0.5,1.9-2,2.3-3.7,2.4c-6.7,0.2-13.5,0.5-20.2,0.7c-2,0.1-4,0.1-6,0.1
			c-1.5,0-3.3,0.6-3.9-1.2c-0.5-1.5-0.7-3.4,0.2-4.7c1-1.5,2.8-1.3,4.4-0.4c0.2,0.1,0.5,0.1,0.7,0.1c5.9,0.8,6.4,0.5,7-5.4
			C352.7,330.5,352.5,324.2,352.5,317.8z"/>
		<path fill="#070707" d="M136.9,453.2c-2.9,2.3-5.3,4.2-8.2,5.4c-4.1,1.7-6.3,0.6-7.7-3.6c-1.1-3.4-0.9-6.9-1.3-10.4
			c-0.1-0.9,0.5-2.4-0.7-2.5c-1.6-0.1-1.2,1.4-1.1,2.5c0,4-0.1,8-0.1,11.9c0,1.1,0.2,2.6-1.5,2.4c-1.3-0.1-1.2-1.4-1.2-2.4
			c0-3.5,0-7,0-10.5c0-2-0.3-3.3-2.9-2.4c-2.2,0.8-4.6,1.2-7.2,0.7c0.7,4.1,1.4,7.8,2,11.6c0.2,1,0.4,2.2-0.9,2.5
			c-1.4,0.3-1.5-0.9-1.7-1.9c-1.3-7-2.7-13.9-3.7-21c-0.7-5.2,0.5-9.9,5.3-13.1c3.3-2.2,6.4-1.5,8.2,2.1c1.9,3.7,2.5,7.8,3.2,11.9
			c0.1,0.9-0.7,2.5,1.2,2.5c1.8,0,1.6-1.6,1.7-2.8c0.5-4.8,1.7-9.3,3.7-13.6c1.6-3.4,5.2-5.5,8.4-5c2,0.3,3.1,1.4,3.3,3.4
			c0.1,0.8-0.1,1.6-0.9,1.8c-0.9,0.3-1.4-0.2-1.7-1c-1.6-4.2-3.5-1.5-4.8,0c-3.6,3.9-4.9,8.9-5.4,14.1c-0.7,6.2-0.6,12.4,1.2,18.5
			c0.6,2.1,1.6,2.6,3.5,1.7c3.5-1.7,6.9-3.5,8.9-7.1c0.7-1.2,1.2-2.7,0.4-3.9c-0.8-1.3-2.3-0.3-3.4-0.3c-1.7,0-4.3,1.9-4.7-0.7
			c-0.4-2.7,2.8-2.5,4.7-2.9c0.6-0.1,1.2-0.1,1.9,0c5.3,0.3,5.7,0.7,5.3,6c-0.4,4.5-1,8.9-1.5,13.4c-0.1,1-0.2,2.2-1.6,2
			c-1.3-0.2-1.3-1.3-1.2-2.4C136.3,458.1,136.6,455.9,136.9,453.2z M103,433.6c0,8.3,0.9,9.1,8.1,7.4c0.7-0.2,1.5-0.3,2.2-0.5
			c0.8-0.2,1.2-0.7,1.1-1.6c-0.4-4.3-0.8-8.7-2.5-12.7c-0.9-1.9-2.1-2.4-4.1-1.4C103.5,426.8,103.2,430.5,103,433.6z"/>
		<path fill="#070707" d="M179.1,450.5c-0.4-8.2-0.8-16.4-1.2-24.6c-0.1-1.7,0-3.5,0-5.2c0-0.8,0.4-1.5,1.3-1.5
			c0.9,0,1.3,0.7,1.4,1.5c0.1,1.5,0,3,0.1,4.5c0.4,9.6,0.9,19.2,1.2,28.8c0.1,2.2,1.1,5.5-1.8,6c-3,0.5-3-3.1-3.6-5.1
			c-2.4-6.7-4.2-13.5-7.1-20.1c-0.3-0.8-0.4-2.3-1.8-2c-1.4,0.3-0.9,1.6-0.7,2.5c1.5,7.2,0.3,14.4-0.5,21.6c-0.1,1.1,0,2.6-1.6,2.4
			c-1.5-0.1-1.4-1.6-1.2-2.7c1.7-8.9,1-17.9,0.5-26.8c-0.1-1.4-0.2-3.4,1.6-3.8c1.9-0.4,2.9,1.2,3.6,2.6c2.7,5.6,5,11.4,6.9,17.3
			c0.5,1.6,1.1,3.1,1.7,4.7C178.4,450.7,178.8,450.6,179.1,450.5z M168.1,432c-0.3-0.4-0.5-0.6-0.7-0.9c-0.2,0.2-0.5,0.4-0.6,0.7
			c-0.1,0.5,0.2,0.9,0.7,0.9C167.6,432.6,167.8,432.2,168.1,432z"/>
		<path fill="#070707" d="M345.8,436.4c0.9-5.5,0.6-12.5,6.1-17.9c2-2,4.5-1.9,6.8-2.4c0.7-0.1,1.5,0.6,1.2,1
			c-1.3,2.4,1,3.2,1.9,4.6c6.2,10.3,7.4,20.9,2.9,32.2c-1.5,3.7-4.4,4.9-7.9,5.2c-3.3,0.3-4.9-2-6.4-4.4
			C347.3,449.5,346,443.7,345.8,436.4z M364.6,439.9c-0.6-5.4-0.8-11.9-5.6-17c-3.4-3.6-6.1-3.3-7.9,1.1c-4,9.7-3.1,19.4,1.3,28.8
			c1,2.1,2.8,3.6,5.3,3.5c2.6-0.1,3.9-2,4.8-4.1C364.1,448.7,364.5,444.9,364.6,439.9z"/>
		<path fill="#070707" d="M403.5,436.2c0.8-5.3,0.6-12.3,6-17.7c2-2,4.5-1.9,6.9-2.4c0.3-0.1,0.9,0.2,0.9,0.4
			c1.5,6.9,7.2,12,7.4,19.5c0.2,5.8,0.2,11.4-1.9,16.9c-1.5,4-4.4,5.9-8.4,6.2c-3.8,0.3-5.4-2.7-6.9-5.4
			C404.7,448.8,403.5,443.3,403.5,436.2z M422.2,439.6c-0.6-5.1-0.8-11.5-5.4-16.5c-3.5-3.8-6.3-3.6-8.2,1.1
			c-4,9.8-3.1,19.5,1.4,28.8c1,2.1,2.8,3.5,5.4,3.4c2.4-0.2,3.7-1.9,4.6-3.9C421.7,448.8,422.2,444.9,422.2,439.6z"/>
		<path fill="#070707" d="M190.8,455.4c3.5-0.5,5.8-0.9,8.2-1.2c0.9-0.1,1.8-0.2,2,1c0.2,1.1-0.6,1.6-1.5,1.7
			c-4.3,0.7-8.5,1.6-12.8,1.7c-1.7,0.1-2.3-2.4-2.1-4.1c0.6-5,0.2-10.1,0.5-14.9c0.3-4.8,0.6-9.7,0.9-14.6c0-0.6,0.1-1.3,0-1.9
			c-0.7-4.4-0.6-4.3,4.1-4.4c4.1-0.1,8.2-0.8,12.2-1c1.3-0.1,3.5-0.9,3.6,1.3c0.2,2.3-2.1,1.5-3.4,1.6c-3.8,0.3-7.7,0.6-11.5,0.8
			c-1.5,0.1-2.2,0.7-2.2,2.3c0,4.4-0.1,8.7-0.3,13.1c-0.1,2,0.9,2.5,2.5,2.2c2.1-0.4,4.1-0.8,6.2-1.4c1.1-0.3,2.4-0.8,2.8,0.7
			c0.4,1.4-1.1,1.7-2.2,2c-1.8,0.5-3.7,1.5-5.4,1.3c-4.1-0.5-4.4,1.7-4.2,4.8c0.1,1.7,0,3.5-0.2,5.2
			C187.9,454.4,188.4,456.3,190.8,455.4z"/>
		<path fill="#070707" d="M148.8,455.4c2.6-0.3,5.2-0.7,7.8-1.1c1-0.1,2.1-0.6,2.5,0.8c0.3,1.3-0.7,1.7-1.8,1.9
			c-4.1,0.6-8.3,1.5-12.4,1.7c-1.8,0.1-2.6-2.3-2.2-4c0.8-3.5,0.9-7,0.8-10.4c0-6.4,1.1-12.7,0.5-19.1c-0.1-1.1,0.2-2.1-0.5-3.2
			c-1.4-2.4,1.3-3.6,2.3-3.5c5.1,0.5,10.1-0.8,15.2-0.7c1.3,0,3.1-0.5,3.1,1.6c-0.1,1.8-1.8,1.3-2.9,1.4c-4,0.2-7.9,0.5-11.9,0.7
			c-1.5,0.1-2.3,0.5-2.3,2.2c0,4.4,0,8.7-0.3,13.1c-0.1,2.2,1.1,2.6,2.7,2.3c2.2-0.4,4.4-1,6.5-1.6c1-0.3,1.8-0.2,2.2,0.8
			c0.4,1.1-0.5,1.6-1.3,1.8c-2.6,0.7-5.2,1.8-8,1.6c-1.8-0.1-2.4,0.5-2.4,2.3c0,3-0.1,6-0.2,9C146.1,454.9,146.9,455.6,148.8,455.4z
			"/>
		<path fill="#070707" d="M377.4,459c-2.5,0-4.9-0.6-7.2-1.6c-0.9-0.4-2-0.9-1.3-2.2c0.5-1,1.4-0.8,2.3-0.4c2,0.8,4,1.3,6.2,1.4
			c2.8,0.1,5.7,0,7.2-2.8c1.5-3,0.5-6-1.5-8.3c-2-2.4-4.4-4.4-6.7-6.5c-2.8-2.5-4.5-5.5-4.8-9.3c-0.3-5.2,5.8-11.3,11.1-10.8
			c1.6,0.2,2.8,0.9,3.5,2.4c0.3,0.6,0.3,1.2-0.2,1.7c-0.5,0.5-1.2,0.6-1.7,0.1c-3-3-5.2-0.6-7.4,1.1c-2.5,2-3.1,4.7-2,7.8
			c0.6,1.7,1.5,3.1,2.8,4.3c1.7,1.6,3.5,3.2,5.3,4.8c1.6,1.4,2.8,3.1,3.6,5.1C389.8,453.6,385.9,459.2,377.4,459z"/>
		<path fill="#070707" d="M87.7,459c-1.5,0-3.9-0.6-6.2-1.6c-0.9-0.4-1.7-0.9-1.4-1.9c0.4-1.2,1.4-1.1,2.5-0.7
			c2.5,0.9,5,1.5,7.7,1.4c5.4-0.3,7.5-3.7,5.6-8.7c-1.5-3.9-5-6.1-7.9-8.8c-2.9-2.7-4.8-5.6-5-9.6c-0.3-5.2,6-11.3,11.1-10.7
			c1.5,0.2,2.6,0.8,3.3,2.1c0.4,0.7,0.5,1.4-0.2,2c-0.5,0.5-1.2,0.5-1.7,0c-3-3-5.2-0.5-7.4,1.2c-2.5,2-3,4.8-2,7.8
			c1.1,3.2,3.7,5.2,6.2,7.3c2.3,2,4.4,4,5.6,6.9C101.1,453.6,97.2,459.2,87.7,459z"/>
		<path fill="#070707" d="M394.8,459.7c-2.8,0.1-3.2-1.6-3.4-3.4c-1.1-8.6-1.7-17.3-1.9-26c-0.1-3.7-0.3-7.4-0.4-11.2
			c0-1.1-0.3-2.6,1.2-2.7c1.6-0.1,1.3,1.4,1.4,2.5c0.7,11.4,1.4,22.8,2,34.2c0.1,2.9,0.8,4.2,3.9,2.8c0.9-0.4,2.4-1.1,2.9,0.4
			c0.6,1.7-1.2,1.9-2.2,2.3C397,459.2,395.7,459.5,394.8,459.7z"/>
		<path fill="#85C0AF" d="M264.7,456.5c1.4-12.9,3.5-25.5,7.8-37.7c0.4-1.1,0.4-2.8,2.2-2.2c1.5,0.5,1.3,2.1,0.8,3.2
			c-3.2,7.9-4.4,16.3-6.1,24.5c-0.9,4-1.3,8.1-1.4,12.2c0,1.1-0.3,2.4-1.8,2.3C264.7,458.7,264.6,457.5,264.7,456.5z"/>
		<path fill="#85C0AF" d="M252.7,456.6c1.4-12.9,3.5-25.4,7.7-37.4c0.4-1.2,0.2-3.2,2.3-2.6c1.7,0.5,1.2,2.3,0.7,3.6
			c-3.3,8-4.4,16.5-6.2,24.9c-0.8,3.7-0.8,7.6-1.2,11.5c-0.1,1.1-0.3,2.4-1.8,2.3C252.8,458.7,252.7,457.5,252.7,456.6z"/>
		<path d="M150,371l-0.3-95.7c0-3.6-2.9-6.5-6.5-6.5c-3.6,0-6.5,2.9-6.5,6.5L137,371c0,3.6,2.9,6.5,6.5,6.5
			C147.1,377.5,150,374.6,150,371"/>
	</g>
</g>
</svg>
